# xmcd
#
# Track frame offsets:
# 150
# 17987
# 34272
# 52474
# 68745
# 80998
# 95435
# 111764
# 127592
# 141466
# 155787
# 178484
#
# Disc length: 2536 seconds
#
#
# Revision: 0
# Processed by: cddbd v1.5.1PL2 Copyright (c) Steve Scherf et al.
# Submitted via: FreeRIP 2.945 
#
DISCID=b709e60c
DTITLE=Rune Rudberg - Runaway
DYEAR=2006
DGENRE=Country
TTITLE0=Runaway
TTITLE1=Crazy Bout You
TTITLE2=Amazed
TTITLE3=Hillbilly Dream
TTITLE4=Dallas
TTITLE5=Close To My Heart
TTITLE6=Give Me A Sign
TTITLE7=Drivin My Life Away
TTITLE8=My Way
TTITLE9=Good Day To Run
TTITLE10=Picture
TTITLE11=Caesar Part II
EXTD=YEAR: 2006
EXTT0=
EXTT1=
EXTT2=
EXTT3=
EXTT4=
EXTT5=
EXTT6=
EXTT7=
EXTT8=
EXTT9=
EXTT10=
EXTT11=Bonus Track
PLAYORDER=
